<svg xmlns="http://www.w3.org/2000/svg"  viewBox="0 0 14.05 12.01"><g id="Layer_2" data-name="Layer 2"><g id="Layer_1-2" data-name="Layer 1"><path d="M11.07,12a2.57,2.57,0,0,1-2.13-1,5.13,5.13,0,0,1-.83-4.66,10.84,10.84,0,0,1,2.63-4.45C11.29,1.26,11.92.72,12.5.14A.35.35,0,0,1,13,.09a5.61,5.61,0,0,0,.54.29.49.49,0,0,1,.12.85A8.06,8.06,0,0,0,11.4,5.12a3.44,3.44,0,0,0,1.9,3.94l.31.15a.64.64,0,0,1,.21,1.1,5.16,5.16,0,0,1-1.89,1.45A7,7,0,0,1,11.07,12Z"/><path d="M0,7.8A7.63,7.63,0,0,1,1.32,3.87,16,16,0,0,1,4.66.11.49.49,0,0,1,5,.06a5.07,5.07,0,0,1,.61.32.49.49,0,0,1,.13.85A8.32,8.32,0,0,0,3.53,5,3.51,3.51,0,0,0,5.67,9.2a.64.64,0,0,1,.24,1.13A4.93,4.93,0,0,1,3.62,11.9a2.27,2.27,0,0,1-2.35-.66A4.88,4.88,0,0,1,0,7.8Z"/></g></g></svg>