<svg xmlns="http://www.w3.org/2000/svg" width="27.415" height="36" viewBox="0 0 27.415 36"><path d="M89.765,42.587c-1.015.456-1.266,1.017-1.325,2.968l-.046,1.516-.744.381a6.584,6.584,0,0,0-2.715,8.9l.419.784L83.343,61.7,81.331,66.26H79.677c-2.212,0-2.677.207-2.677,1.19,0,.919.3,1.1,1.893,1.142a10.552,10.552,0,0,1,1.353.081c0,.024-.41.965-.91,2.09-1.3,2.922-1.426,3.535-1.006,4.885.387,1.243,1.987,2.884,2.609,2.676.065-.022,1.085-2.2,2.267-4.848l2.149-4.809,1.587-.031,1.587-.031V66.26h-2.1l1.462-3.274,1.462-3.274H92L93.3,62.622c.718,1.6,1.374,3.074,1.459,3.274l.154.364H91.889v-.9c0-1.648-.768-2.43-1.792-1.825-.534.316-.559.491-.559,4.025v3.306l.327.327c.975.975,2.024.1,2.024-1.684v-.9h4.093l2.171,4.87c2.375,5.327,2.209,5.078,3.034,4.553a3.907,3.907,0,0,0,1.953-3.6V73.257l-1.02-2.295-1.02-2.295,1.32-.056c1.482-.063,1.824-.23,1.961-.956.194-1.034-.345-1.325-2.581-1.4l-1.789-.056-2-4.528-2-4.528.394-.733A6.535,6.535,0,0,0,93.746,47.5l-.849-.436V45.6c0-2.559-1.32-3.829-3.132-3.015M92,50.267a3.268,3.268,0,1,1-3.569,5.359A3.271,3.271,0,0,1,92,50.267" transform="translate(-77 -42.343)" fill="#ffe5d9" fill-rule="evenodd"/></svg>