<svg xmlns="http://www.w3.org/2000/svg" xmlns:xlink="http://www.w3.org/1999/xlink" width="25" height="24" viewBox="0 0 25 24"><defs><clipPath id="a"><rect width="25" height="24" rx="3" transform="translate(320 4149)" fill="#fff"/></clipPath></defs><g transform="translate(-320 -4149)" clip-path="url(#a)"><path d="M22.715,2.25H2.726A2.727,2.727,0,0,0,0,4.976V24.965a2.727,2.727,0,0,0,2.726,2.726H22.715a2.727,2.727,0,0,0,2.726-2.726V4.976A2.727,2.727,0,0,0,22.715,2.25ZM15.747,24.039c-.477.085-.653-.21-.653-.454,0-.307.011-1.874.011-3.14a2.213,2.213,0,0,0-.642-1.743c2.1-.233,4.316-.522,4.316-4.151a2.916,2.916,0,0,0-.971-2.215,3.552,3.552,0,0,0-.1-2.555c-.789-.244-2.6,1.017-2.6,1.017a8.934,8.934,0,0,0-4.725,0S8.586,9.536,7.8,9.78a3.524,3.524,0,0,0-.1,2.555,2.852,2.852,0,0,0-.886,2.215c0,3.612,2.118,3.918,4.219,4.151a2.058,2.058,0,0,0-.6,1.266,1.993,1.993,0,0,1-2.743-.789,1.978,1.978,0,0,0-1.448-.971c-.92-.011-.062.579-.062.579.613.284,1.045,1.374,1.045,1.374.551,1.687,3.186,1.119,3.186,1.119,0,.789.011,2.073.011,2.306s-.17.539-.653.454A9.421,9.421,0,0,1,3.4,15.05a9.012,9.012,0,0,1,9.2-9.171,9.213,9.213,0,0,1,9.438,9.171A9.335,9.335,0,0,1,15.747,24.039Zm-5.571-3.47c-.108.023-.21-.023-.221-.1s.062-.159.17-.182.21.034.221.108S10.29,20.547,10.176,20.57Zm-.539-.051c0,.074-.085.136-.2.136s-.21-.051-.21-.136.085-.136.2-.136S9.637,20.433,9.637,20.519Zm-.778-.062c-.023.074-.136.108-.233.074s-.182-.108-.159-.182.136-.108.233-.085C8.813,20.3,8.887,20.382,8.859,20.456Zm-.7-.307c-.051.062-.159.051-.244-.034s-.108-.182-.051-.233.159-.051.244.034S8.212,20.1,8.16,20.149Zm-.517-.517c-.051.034-.148,0-.21-.085s-.062-.182,0-.221.159-.011.21.074a.166.166,0,0,1,0,.233Zm-.369-.551c-.051.051-.136.023-.2-.034-.062-.074-.074-.159-.023-.2s.136-.023.2.034C7.314,18.957,7.326,19.042,7.275,19.082Zm-.38-.42a.107.107,0,0,1-.159.023c-.074-.034-.108-.1-.085-.148a.134.134,0,0,1,.159-.023C6.883,18.554,6.917,18.616,6.894,18.662Z" transform="translate(319.65 4146.504)" fill="#ffe5d9"/></g></svg>