<svg xmlns="http://www.w3.org/2000/svg" width="344" height="47.125" viewBox="0 0 344 47.125"><g transform="translate(-456 -307.525)"><path d="M-55.64.65a22.46,22.46,0,0,1-11.6-2.925,19.884,19.884,0,0,1-7.7-8.223,26.828,26.828,0,0,1-2.73-12.447,26.779,26.779,0,0,1,2.73-12.48,19.779,19.779,0,0,1,7.67-8.158A22.614,22.614,0,0,1-55.64-46.475,22.614,22.614,0,0,1-44-43.583a19.779,19.779,0,0,1,7.67,8.158A26.629,26.629,0,0,1-33.6-23.01,26.979,26.979,0,0,1-36.335-10.5,19.948,19.948,0,0,1-44-2.275,22.416,22.416,0,0,1-55.64.65Zm0-7.15q6.305,0,9.815-4.355t3.51-12.09q0-7.8-3.478-12.09t-9.847-4.29q-6.305,0-9.815,4.29t-3.51,12.09q0,7.735,3.51,12.09T-55.64-6.5ZM-21.255.52q-3.77,0-3.77-3.9V-42.445q0-3.9,3.9-3.9a4.64,4.64,0,0,1,2.568.618,5.485,5.485,0,0,1,1.722,2.112L-1.82-15.86,13.2-43.615a5.646,5.646,0,0,1,1.69-2.112,4.475,4.475,0,0,1,2.535-.618q3.77,0,3.77,3.9V-3.38q0,3.9-3.77,3.9t-3.77-3.9V-30.875L1.43-8.58A5.292,5.292,0,0,1,.065-6.955a3.254,3.254,0,0,1-1.95.52A3.408,3.408,0,0,1-3.9-6.988,4.77,4.77,0,0,1-5.265-8.58l-12.22-22.165V-3.38Q-17.485.52-21.255.52ZM35.685,0q-4.42,0-4.42-4.42V-41.405q0-4.42,4.42-4.42h23.2q3.38,0,3.38,3.25,0,3.38-3.38,3.38H39.26v12.61h18.2q3.38,0,3.38,3.315t-3.38,3.315H39.26V-6.63H58.89q3.38,0,3.38,3.315T58.89,0ZM73.19-13.195q-2.535,0-2.73-2.99l-1.95-24.83a5.116,5.116,0,0,1,1.04-3.868,4.5,4.5,0,0,1,3.64-1.463,4.32,4.32,0,0,1,3.542,1.463,5.2,5.2,0,0,1,1.008,3.868l-1.95,24.83Q75.6-13.2,73.19-13.195Zm0,13.52A4.725,4.725,0,0,1,69.647-1.04a4.814,4.814,0,0,1-1.332-3.51,4.621,4.621,0,0,1,1.332-3.412A4.788,4.788,0,0,1,73.19-9.3a4.655,4.655,0,0,1,3.542,1.332A4.75,4.75,0,0,1,78-4.55a4.954,4.954,0,0,1-1.268,3.51A4.6,4.6,0,0,1,73.19.325Z" transform="translate(722 354)" fill="#e07a5f"/><path d="M-73.58.52q-3.315,0-4.55-3.51L-91.715-41.405a3.709,3.709,0,0,1,.293-3.51,3.882,3.882,0,0,1,3.412-1.43,4.145,4.145,0,0,1,2.73.813,5.535,5.535,0,0,1,1.56,2.568l10.4,30.94L-62.4-42.9q1.235-3.445,4.16-3.445a3.487,3.487,0,0,1,2.47.845,6.655,6.655,0,0,1,1.56,2.665L-43.485-11.57-32.76-42.965A5.771,5.771,0,0,1-31.2-45.5a3.932,3.932,0,0,1,2.665-.845,3.437,3.437,0,0,1,3.055,1.43,3.772,3.772,0,0,1,.26,3.51L-38.935-2.925a5.9,5.9,0,0,1-1.69,2.6,4.3,4.3,0,0,1-2.8.845,4.3,4.3,0,0,1-2.8-.845A5.9,5.9,0,0,1-47.9-2.99L-58.5-33.085-69.16-2.925a6.061,6.061,0,0,1-1.658,2.6A4.168,4.168,0,0,1-73.58.52ZM-12.935,0q-4.42,0-4.42-4.42V-41.405q0-4.42,4.42-4.42h23.2q3.38,0,3.38,3.25,0,3.38-3.38,3.38H-9.36v12.61H8.84q3.38,0,3.38,3.315T8.84-19.955H-9.36V-6.63H10.27q3.38,0,3.38,3.315T10.27,0Zm38.61,0Q21.45,0,21.45-4.29V-41.8q0-4.225,4.16-4.225T29.77-41.8v34.71H48.62q3.64,0,3.64,3.51Q52.26,0,48.62,0ZM76.83.65A24.465,24.465,0,0,1,64.578-2.242a19.437,19.437,0,0,1-7.833-8.19,26.979,26.979,0,0,1-2.73-12.512,26.779,26.779,0,0,1,2.73-12.48,19.482,19.482,0,0,1,7.833-8.158A24.465,24.465,0,0,1,76.83-46.475a27.373,27.373,0,0,1,7.02.91,20.718,20.718,0,0,1,6.045,2.6,4.245,4.245,0,0,1,2.015,2.632,3.868,3.868,0,0,1-.39,2.8,3.509,3.509,0,0,1-2.145,1.69A3.775,3.775,0,0,1,86.19-36.6a14.437,14.437,0,0,0-4.355-1.885,19.491,19.491,0,0,0-4.745-.585q-6.955,0-10.6,4.193t-3.64,11.927q0,7.735,3.64,11.96T77.09-6.76a19.527,19.527,0,0,0,4.875-.617A16.791,16.791,0,0,0,86.515-9.3a3.868,3.868,0,0,1,3.12-.715,3.305,3.305,0,0,1,2.047,1.592,3.8,3.8,0,0,1,.423,2.633A4.091,4.091,0,0,1,90.35-3.25,19.33,19.33,0,0,1,84.143-.357,27.064,27.064,0,0,1,76.83.65Z" transform="translate(548.012 354)" fill="#ffe5d9"/></g></svg>