<svg xmlns="http://www.w3.org/2000/svg" width="15.447" height="15.447" viewBox="0 0 15.447 15.447"><path d="M8.286.563A7.724,7.724,0,1,0,16.01,8.286,7.725,7.725,0,0,0,8.286.563Zm0,3.426A1.308,1.308,0,1,1,6.978,5.3,1.308,1.308,0,0,1,8.286,3.988ZM10.03,11.9a.374.374,0,0,1-.374.374H6.916a.374.374,0,0,1-.374-.374v-.747a.374.374,0,0,1,.374-.374h.374V8.784H6.916a.374.374,0,0,1-.374-.374V7.663a.374.374,0,0,1,.374-.374H8.909a.374.374,0,0,1,.374.374v3.114h.374a.374.374,0,0,1,.374.374Z" transform="translate(-0.563 -0.563)" fill="#3d3d3e"/></svg>