<svg id="Layer_1" data-name="Layer 1" xmlns="http://www.w3.org/2000/svg" viewBox="0 0 658 548"><defs><style>.cls-1{fill:#401f0a;}.cls-2{fill:#e89136;}.cls-3{fill:#fff;}.cls-4{fill:#7d614f;}.cls-5{fill:#c9731f;}.cls-6{fill:#f2b87d;}.cls-7{fill:#634736;}.cls-8{fill:#6e4529;}.cls-9{fill:#e79036;}.cls-10{fill:#634635;}.cls-11{fill:#5e381e;}.cls-12{fill:#e5a669;}.cls-13{fill:#5a3e2a;}.cls-14{fill:#684935;}.cls-15{fill:#6f503d;}.cls-16{fill:#553523;}</style></defs><title>CUP Dog Color SVG</title><path class="cls-1" d="M329.16,544.05c-4,0-8,.08-12,0s-8.32-.38-12.47-.63c-2.62-.15-5.23-.39-7.85-.58-5.77-.42-11.51-1.08-17.25-1.79-9.72-1.2-19.37-2.83-29-4.81A364.68,364.68,0,0,1,214,526.66a355.18,355.18,0,0,1-43.87-17.12,335,335,0,0,1-41.35-23.08,307.61,307.61,0,0,1-38.9-30.17,269.15,269.15,0,0,1-50.5-61.75,236,236,0,0,1-21.24-46.86,220.52,220.52,0,0,1-8.46-35.49,233,233,0,0,1-2.41-25.31C7,282,7,277.16,7.12,272.31c.16-5.54.5-11.08,1.09-16.61a234.29,234.29,0,0,1,3.8-24,227.29,227.29,0,0,1,16.82-49.57A252.2,252.2,0,0,1,64.5,126.94,286.73,286.73,0,0,1,116.38,79c5.26-3.79,10.25-7.92,15.39-11.86a285.44,285.44,0,0,1,42.72-27.08,312.86,312.86,0,0,1,46.18-19.37,333.92,333.92,0,0,1,40.45-10.56c8.33-1.63,16.7-3,25.12-4S303,4.45,311.36,4c6.4-.32,12.8-.43,19.2-.42q11.91,0,23.8.88c5.7.42,11.38.92,17,1.61q12.63,1.53,25.12,4a339.42,339.42,0,0,1,33.85,8.42A308.12,308.12,0,0,1,506,53a263.16,263.16,0,0,1,25.54,18.36c2.09,1.71,4.37,3.16,6.57,4.72a305.76,305.76,0,0,1,34.54,28.26,266.33,266.33,0,0,1,48.78,62,231.86,231.86,0,0,1,23.46,58.61,219.1,219.1,0,0,1,5,27.51c.88,7.59,1.33,15.2,1.48,22.84.09,5-.07,10-.27,15-.18,4.7-.65,9.38-1.2,14a220.35,220.35,0,0,1-3.81,22.56A228.85,228.85,0,0,1,629,376.12,257.08,257.08,0,0,1,584.18,441a297.48,297.48,0,0,1-50.52,42.91,340.21,340.21,0,0,1-79.41,39.57,375.33,375.33,0,0,1-46.06,12.74c-7.32,1.53-14.69,2.8-22.09,3.88-7.17,1.05-14.37,1.93-21.58,2.57-5.91.54-11.84.9-17.78,1.16S335,544.16,329.16,544.05Z"/><path class="cls-2" d="M212.12,355.65c1.61,1.62,3.06,3.38,4.7,5.2-2.51,1.68-4.74,3.17-7,4.69a1.24,1.24,0,0,1-1.66-.1,18.08,18.08,0,0,1-3.59-3.23,2.1,2.1,0,0,1,.36-.84c2.18-2.87,2.16-2.85-.77-5.11-22-17-39.23-37.86-50.86-63.18a142.41,142.41,0,0,1-12.56-46.26,145.85,145.85,0,0,1,14.43-79.75,165.85,165.85,0,0,1,27.4-39.63c18.21-19.61,39.91-34.08,64.34-44.68a209.86,209.86,0,0,1,55.9-15.15,214.24,214.24,0,0,1,38.8-1.42A207.85,207.85,0,0,1,399.2,77.08c24.28,8.34,46.35,20.56,65.76,37.47,20.43,17.8,36,39.07,45.92,64.34a143.76,143.76,0,0,1,9.45,40.89c2.45,29.78-3.93,57.64-18,83.85a145.6,145.6,0,0,1-12.9,19.75,3.1,3.1,0,0,1-1.31,1.25c-1-3.05-2.09-6.11-3.12-9.17a13.44,13.44,0,0,0-6.57-7.74,17.13,17.13,0,0,0-4.35-1.51,8.22,8.22,0,0,1-1.14-.19c-3.44-1.41-7-1-10.5-.55-8.42,1.1-16.59,3.4-24.82,5.4-7.12,1.72-14.22,3.47-21.43,4.78a96.07,96.07,0,0,1-19.05,2,32.33,32.33,0,0,1-12-2.21,13.86,13.86,0,0,0-5.17-1.11,9.26,9.26,0,0,0-6.53,2.5,20.64,20.64,0,0,0-5.21,7.29,34.57,34.57,0,0,0-2.39,8.66,60.26,60.26,0,0,0-.37,11.31c.06,1.69.3,3.38.46,5.06.94,1.83.66,3.8.48,5.67-1.24,12.45-4.2,24.45-10.07,35.58a80.19,80.19,0,0,1-24.06,28.23.37.37,0,0,0-.14.39c-.48.73-1.3.79-2,1-15.18,4.28-29.46,2-43.06-5.72-5.71-3.23-10.87-7.07-14.74-12.43-7.13-9.89-7.06-20.55-3.05-31.52a81.48,81.48,0,0,1,6.78-13.41A23.12,23.12,0,0,0,278,352.7a180.4,180.4,0,0,1,29.06-53.4,129.21,129.21,0,0,1,43.08-35.11c7.7-3.95,15.79-7,23.58-10.75l1.34-.46a5.05,5.05,0,0,1,.69-.22,35.15,35.15,0,0,1,22.27.65,22.58,22.58,0,0,1,4,1.84,34.78,34.78,0,0,0,16.68,4.91c14.51.73,27.7-3.43,40.09-10.59a35.22,35.22,0,0,0,9.92-8.93c5.24-6.69,10.33-13.5,13.5-21.46,2.15-5.4,3.17-11,1-16.69a5.8,5.8,0,0,0-1.14-2.4h.05c-.22-.3-.14-.79-.6-.94a17.43,17.43,0,0,0-4.25-4.77,14,14,0,0,0-21.65,7.27,9.07,9.07,0,0,0-.41,3,6.5,6.5,0,0,1-1,3.71,16.11,16.11,0,0,1-2.64,3.74c-.92.25-1.42-.42-2-.92A209.17,209.17,0,0,0,408,182.39a203.66,203.66,0,0,0-70.67-22.06c-3.27-.4-6.52-1.22-9.86-.7a1.87,1.87,0,0,1-1-.3,13.06,13.06,0,0,1-2.32-1.86,72.32,72.32,0,0,0-20.81-13.54,99,99,0,0,0-24.1-7c-4.18-.67-8.37-1.11-12.6-1.44-5.23-.41-10.45-.37-15.69-.32a13.67,13.67,0,0,0-10.4,4.69,3.69,3.69,0,0,1-.53.43c-2.23,1.64-4.47,3.25-5.93,5.72A12.88,12.88,0,0,0,245,165.59a147.21,147.21,0,0,1,25.78,1.93c10.06,1.84,19.47,5.27,27.52,11.87A43.84,43.84,0,0,1,311.62,199a67.79,67.79,0,0,1,4,23.36c0,3.62,0,7.25,0,10.87a6.65,6.65,0,0,1-1,4,7.48,7.48,0,0,1-.87.73,171,171,0,0,0-25.38,18.93,141.11,141.11,0,0,0-26.16,31,101.57,101.57,0,0,0-12.27,28.84,30.31,30.31,0,0,1-1.12,4.7c-1.27.4-2-.52-2.84-1.17a194.24,194.24,0,0,1-23.25-21.82,174.17,174.17,0,0,1-19.31-25.68,159,159,0,0,1-22.44-61.53,170.91,170.91,0,0,1-1.44-18c-.8-23.15,3.75-45.21,12.82-66.43a21.64,21.64,0,0,1,1.84-3.46c.08-.19.36-.39.32-.5s-.19-.2-.13,0a.41.41,0,0,1-.14.39c-2.23,3.17-5.23,5.64-7.77,8.54a161.13,161.13,0,0,0-29.83,48.93,145.37,145.37,0,0,0-8.84,65.17,148,148,0,0,0,15,52.64A156.13,156.13,0,0,0,186,332.69a212.87,212.87,0,0,0,20.55,20C208.19,354.06,209.83,355.46,212.12,355.65Z"/><path class="cls-3" d="M185.75,380.46c-2.3,1.33-4.49,2.59-6.66,3.89-.71.43-1.75.6-2,1.45a6.35,6.35,0,0,0,.17,2.27c.38,3.92.73,7.83,1.38,11.72a72.17,72.17,0,0,0,3.53,13.39,6.55,6.55,0,0,1,.19.63c-.4.43-.71.07-1-.08-7.42-3.79-14.62-8-21.64-12.46a253.4,253.4,0,0,1-35.21-27c-18-16.54-33.08-35.32-44.57-56.94a176.87,176.87,0,0,1-20.8-72.09A164.53,164.53,0,0,1,59,224.87,176.5,176.5,0,0,1,76.7,156.63a205.4,205.4,0,0,1,34.54-50.11c19-20.52,41.1-37,65.61-50.34A301,301,0,0,1,245.78,29.3q15-3.87,30.34-6.24,11.31-1.74,22.72-2.78A347.64,347.64,0,0,1,336.75,19q9.84.18,19.63,1c6.38.51,12.74,1.23,19.09,2.1A320.89,320.89,0,0,1,435,36.1a296.78,296.78,0,0,1,35.24,14.49,270.15,270.15,0,0,1,51.85,32.88q8.26,6.7,15.91,14.14a216.93,216.93,0,0,1,29.18,34.62,190.46,190.46,0,0,1,22,43.38,176.88,176.88,0,0,1,7.65,29.5A169.23,169.23,0,0,1,599,225.34c.21,4.54.36,9.09.15,13.63-.22,4.93-.53,9.85-1.09,14.76a175.25,175.25,0,0,1-4,22.06,180.19,180.19,0,0,1-11.31,32,201.73,201.73,0,0,1-30,46.49,242.15,242.15,0,0,1-47,42c-1.15.78-2.29,1.57-3.45,2.33-.51.33-.86.11-.85-.53,0-2.55.15-5.09.15-7.64a122.69,122.69,0,0,0-1.71-19.79,4.1,4.1,0,0,1-.1-.69c0-1-.72-2.05-.27-2.93a9.51,9.51,0,0,1,2.07-2.14,196,196,0,0,0,38.82-51.23,174.36,174.36,0,0,0,16.11-44.41,175.94,175.94,0,0,0,3.81-41.13c-.14-5.39-.57-10.77-1.22-16.14a172.83,172.83,0,0,0-4.77-24.49A177.91,177.91,0,0,0,542.44,156,192.51,192.51,0,0,0,509,108.16a211.94,211.94,0,0,0-33.92-28.93A243.59,243.59,0,0,0,371.36,39.48c-7.64-1-15.32-1.73-23-2.12q-9.72-.48-19.43-.22-9.13.22-18.23,1.14c-5.53.55-11,1.23-16.52,2.13q-10.5,1.73-20.82,4.34A239.19,239.19,0,0,0,223.62,63.2,221,221,0,0,0,171,99.85a197,197,0,0,0-37.4,47.71,176.93,176.93,0,0,0-19.15,52.08A167.5,167.5,0,0,0,112,217.5c-.48,5.45-.7,10.92-.76,16.39-.06,4.62.27,9.24.67,13.85q.54,6.12,1.49,12.17a168,168,0,0,0,5.48,23.63,184.46,184.46,0,0,0,33.46,62.13,206.26,206.26,0,0,0,19.57,21c3,2.79,5.76,5.81,8.65,8.7C182.23,377,183.94,378.68,185.75,380.46Z"/><path class="cls-4" d="M584,338.05a15.38,15.38,0,0,1,1.86-3.43c1.62-2.89,3.28-5.76,4.91-8.64.76-1.35,1.51-2.69,2.21-4.07a201.47,201.47,0,0,0,12.78-31.19,173.56,173.56,0,0,0,5.16-20.34c.56-3.1,1.19-6.18,1.7-9.29.29-1.74.39-3.51.59-5.27.26-2.21.53-4.42.79-6.63a4.14,4.14,0,0,0,.07-.69c-.14-3.71.56-7.38.5-11.08s.25-7.28-.12-10.87c-.33-3.06-.13-6.14-.66-9.2-.34-1.95-.27-4-.58-6-.29-1.82-.49-3.65-.76-5.47-.34-2.2-.72-4.4-1.08-6.6-.64-3.95-1.57-7.84-2.56-11.71-.13-.52-.37-1-.09-1.56.59,0,.69.54.9.93q4.9,8.91,9,18.24a244.08,244.08,0,0,1,9.12,24,154.56,154.56,0,0,1,5,19.2c.53,2.87,1.2,5.72,1.67,8.6s.6,5.66,1.12,8.45c.44,2.36.19,4.77.78,7.1a5.84,5.84,0,0,1,.07,1.39c0,3.16,0,6.33,0,9.49-.48,2,.07,4.15-.77,6.14-.38.92-.5,2.09-1.83,2s-1.23-1.3-1.39-2.13c-1-5.26-2.24-10.48-3.39-15.71-.39-2.32-1.21-4.55-1.41-6.9-.1-.17-.23-.23-.38-.15s-.19.35-.06.56c0,6.24.13,12.49-.08,18.73-.09,2.82-.4,5.66-.73,8.48-.39,3.29-1,6.53-1.52,9.78-.28,1.67-.66,3.32-1.08,4.95a11,11,0,0,0-.31,2.05c-.79,5.88-3.29,11.2-5.44,16.63-5.82,14.62-11.06,29.47-17,44.06-5.22,12.89-11.05,25.48-18.85,37.07a108.84,108.84,0,0,1-41.23,36.31,78,78,0,0,1-8.57,4.07c-.72.27-1.44.56-2.17.8-6,1.95-9.51-.5-9.72-6.8a73.68,73.68,0,0,1,1-11.5c.53-4.29.92-8.59,1.42-12.65-5.29,11.26-9.41,23.25-15,34.63-6.49,13.27-16.51,22.91-29.49,29.66a204.19,204.19,0,0,1-65.17,20.85,195.21,195.21,0,0,1-35.09,1.43,127,127,0,0,1-23.57-3.31,4.32,4.32,0,0,1-2.63-1.32l-2.24-.55c-.27-.26-.69-.17-1-.38l-.4,0a1.55,1.55,0,0,1-1.54.13c-8.59-2.61-16.86-5.94-24.19-10.91a50,50,0,0,1,6.12,10.23,12.45,12.45,0,0,1,.74,2.67c.6,3.51-.85,5.91-4.33,6.77a97.65,97.65,0,0,1-11.65,1.83,127,127,0,0,1-15.48.49,135.29,135.29,0,0,1-34.94-5c-27.36-7.33-51.77-20.67-74.78-36.83a366.7,366.7,0,0,1-32.79-26c-10.44-9.27-20.49-19-28.59-27.75,6.39,8.42,13.46,18.84,20.79,29.07q9.84,13.74,19.58,27.55a20.7,20.7,0,0,1,2.88,5c.91,2.56,0,3.92-2.74,3.88-3.46-.06-6.37-1.82-9.27-3.37A192.32,192.32,0,0,1,132.71,461a329.56,329.56,0,0,1-37.56-33.26c-14.34-14.9-27.12-31-36.4-49.63-5.44-10.91-8.75-22.56-11.6-34.36-1.48-6.14-2.65-12.35-4.28-18.46a5.21,5.21,0,0,1-.33-2c-1.72,10.14-3.18,20.3-2.94,30.62a4.46,4.46,0,0,0,.2,2.26l.07,2.74c.09.56.66,1.28-.49,1.41-2.55-6.37-4.7-12.86-6.61-19.44C30.77,334,29.24,327,27.93,320c-.68-3.61-1.23-7.26-1.6-10.94-.33-3.36-.63-6.73-1-10.09s-.28-6.76-.39-10.14c0-1-.14-2-.26-3a18.71,18.71,0,0,1,0-4.61,32.08,32.08,0,0,0,.25-3.91c0-2.08-.11-4.18.11-6.24.33-3.06.28-6.14.76-9.19.27-1.73.3-3.51.52-5.27.52-4.19,1.09-8.37,1.79-12.53.55-3.26,1.22-6.49,1.87-9.73,1-5.12,2.18-10.22,3.57-15.26,1.46-5.34,3-10.67,4.88-15.87,1.7-4.62,3.48-9.2,5.47-13.71,1.69-3.81,3.58-7.51,5.45-11.22,1.11-2.2,2.39-4.31,3.59-6.46a6.85,6.85,0,0,0,.34-.85c.82-.06.71.36.45.86-1.22,4-2.47,7.94-3.63,11.93-1.36,4.65-2.41,9.39-3.31,14.15-.68,3.54-1.25,7.11-1.79,10.68-.28,1.9-.25,3.85-.61,5.73-.53,2.74-.16,5.54-.78,8.26a8.74,8.74,0,0,0-.07,1.85c0,6.48-.16,13,.06,19.45a75,75,0,0,0,.73,9.19c.24,1.58.31,3.2.55,4.8.38,2.51.62,5,1.07,7.54,1,5.52,2.13,11,3.56,16.44a195.44,195.44,0,0,0,6.63,20.43,202.65,202.65,0,0,0,8.23,18.59c2,3.85,4.08,7.6,6.24,11.34,2.42,4.21,5.06,8.29,7.78,12.31q5.13,7.55,10.9,14.63c2.62,3.23,5.33,6.38,8.08,9.5,5.32,6,11.06,11.63,16.91,17.12,4.48,4.22,9.2,8.18,14.06,12,6.61,5.19,13.37,10.17,20.41,14.75,5.81,3.79,11.74,7.39,17.81,10.75,5.06,2.8,10.12,5.59,15.36,8s10.17,4.82,15.41,6.88a6.91,6.91,0,0,1,2.28,1.54,99.72,99.72,0,0,0,22.1,16.22A119.47,119.47,0,0,0,243.67,465a108.31,108.31,0,0,0,15,3.52c3.18.51,6.4.84,9.62,1.16a129,129,0,0,0,15.48.26,42.62,42.62,0,0,0,7.1-.72c1.81-.35,3.67-.44,5.47-.83,3.83-.83,7.64-1.76,11.45-2.7q17.48-4.31,34.94-8.65,21.72-5.4,43.44-10.84c1.87-.47,3.73-.94,5.6-1.39,1.25-.31,1.31-.29,2,.91a72.94,72.94,0,0,0,4.45,7,45.14,45.14,0,0,0,11,10.82,38,38,0,0,0,15.16,5.92,18,18,0,0,0,2.08.12,8.56,8.56,0,0,1,2.52.23,1.7,1.7,0,0,0,.91.11c1.82-.47,3.71-.15,5.52-.46a64.16,64.16,0,0,0,8.76-2,101.54,101.54,0,0,0,25.8-12.8,75.61,75.61,0,0,0,14.2-12.51,58,58,0,0,0,8.88-12.91,54.73,54.73,0,0,0,3.57-8,3.24,3.24,0,0,1,1.56-1.91c2.38-1.42,4.71-2.93,7.07-4.38q8.67-5.36,16.79-11.47c4-3,7.93-6.11,11.86-9.21,1.51-1.19,2.93-2.51,4.37-3.78q3.74-3.28,7.43-6.59c.75-.67,1.46-1.38,2.16-2.09,2.79-2.79,5.61-5.53,8.32-8.38,2.23-2.35,4.29-4.85,6.47-7.23,2.56-2.79,4.93-5.72,7.25-8.69,1.8-2.31,3.57-4.64,5.35-7,1.68-.71,2.43.49,3.08,1.62a10.83,10.83,0,0,1,1.28,5.81c-.2,6.54.43,13.07.07,19.61a154.94,154.94,0,0,1,1.45-15.51c.82-7.05,1.4-14.12,2.17-21.17A7.46,7.46,0,0,1,584,338.05Z"/><path class="cls-3" d="M374.23,253.79c-6.12,3.1-12.57,5.46-18.77,8.39a138.68,138.68,0,0,0-30,19,134.77,134.77,0,0,0-23.33,25.55,177.34,177.34,0,0,0-13.3,22.2q-4.73,9.27-8.73,18.87a15,15,0,0,0-.89,2.85,19.38,19.38,0,0,1-2.17,5.58c-.78,1.42-1.59,2.82-2.4,4.22A55.89,55.89,0,0,0,268,376.89c-2.49,11.91.82,22,9.83,30.07,8.23,7.38,18,11.75,28.81,13.88a46.62,46.62,0,0,0,15,.25,89.74,89.74,0,0,0,10.15-2.15c.14,0,.25-.18.37-.27a9.59,9.59,0,0,1,2.66-1.37c8.61-2.45,16.92-5.85,25.56-8.19,8.41-2.28,16.9-3.56,25.63-2.2,1.15.18,2.31.32,3,1.4.87,6.26,1.44,12.56,2,18.85.3,3.3,1,6.56,1.47,9.83.06.39.14.76.19,1.15.14,1.25-.66,2-1.93,1.67a.88.88,0,0,1-.52-.41c-.22-.4-.39-.83-.57-1.25-2-4.67-4.06-9.33-6.1-14-.41-.93-.5-1-1.6-.7-5.6,1.41-11.2,2.85-16.8,4.25L316.27,440q-5,1.26-10.08,2.56a1.15,1.15,0,0,1-1-.06l1.8-2.11a31.74,31.74,0,0,0,6.76-12.76,13.67,13.67,0,0,0,.63-4.54c-.78.16-1.06.77-1.46,1.2a82.06,82.06,0,0,1-20.81,16.39,62.88,62.88,0,0,1-14.75,5.92,40.44,40.44,0,0,1-17.2.71A70.93,70.93,0,0,1,237,439.07a62.8,62.8,0,0,1-15.91-12.93c-.35-.4-.65-.83-.91-1.16,7-11.18,7.14-22.42,1-34,.12-.44.67-.63,1.1-.92,7.78-5.3,15.38-10.84,22.66-16.82a155.08,155.08,0,0,0,19.36-18.56,64.05,64.05,0,0,0,7.81-11.16,29.57,29.57,0,0,0,3.33-9.31c.26-1.6.35-3.22.54-4.83a61.57,61.57,0,0,1,5.55-18.76,94.15,94.15,0,0,1,15.95-23.72,138,138,0,0,1,57.2-38,91.77,91.77,0,0,1,21.15-4.75,50,50,0,0,1,9.24-.14c.45,1-.17,1.81-.77,2.48-2.55,2.88-5.26,5.57-9.07,6.8h0C374.9,253.58,374.47,253.48,374.23,253.79Z"/><path class="cls-5" d="M212.12,355.65a1.29,1.29,0,0,0-.45.08,2.35,2.35,0,0,1-2.95-.51c-.74-.68-1.57-1.24-2.33-1.88-1.77-1.49-3.38-3.15-5.17-4.6-4.26-3.48-7.89-7.58-11.81-11.4-2.32-2.25-4.28-4.82-6.42-7.24s-4-4.87-5.89-7.39a136.32,136.32,0,0,1-8.89-13.18c-1.93-3.33-3.87-6.66-5.67-10-1.26-2.38-2.38-4.84-3.44-7.32a165.84,165.84,0,0,1-5.89-15.77q-1.82-5.83-3.13-11.8c-.75-3.44-1.43-6.9-1.92-10.39-.38-2.66-.61-5.33-1-8s-.06-5.41-.47-8.05a66,66,0,0,1-.36-8.06,8,8,0,0,1,.27-2.51,8.78,8.78,0,0,0,.17-2.06c.1-2.15-.25-4.32.44-6.43a1.76,1.76,0,0,0,0-.46,86.35,86.35,0,0,1,1.28-10.26A120.73,120.73,0,0,1,151,196.46a131.79,131.79,0,0,1,4.36-14.09c1.32-3.45,2.65-6.9,4.11-10.28,1.23-2.83,2.69-5.55,4.09-8.3,1.77-3.51,3.83-6.85,5.86-10.21,3.16-5.2,6.84-10,10.44-14.91,1-1.3,2.16-2.42,3.09-3.73,1.34-1.89,3.06-3.44,4.5-5.25a67.85,67.85,0,0,1,5.17-5.29,6.75,6.75,0,0,1,1.9-1.67h0a3.45,3.45,0,0,1-.42,1.77,126.24,126.24,0,0,0-6.72,17.17,153.62,153.62,0,0,0-4,14.9c-.54,2.55-1,5.1-1.39,7.68-.19,1.29-.4,2.58-.69,3.85a8.07,8.07,0,0,0-.21,1.82,8,8,0,0,1-.34,2.74,4.41,4.41,0,0,0-.13,1.37,11.39,11.39,0,0,1-.36,3.43,6.22,6.22,0,0,0-.1,1.84c0,1.77,0,3.54,0,5.32a8.5,8.5,0,0,1-.28,2.74,5.18,5.18,0,0,0-.05,3,13,13,0,0,1,.33,3.66c0,1.62,0,3.24,0,4.86a7.51,7.51,0,0,0,.34,3,2,2,0,0,1,.1.91c-.23,2.1.33,4.14.58,6.18.32,2.49.74,5,1.16,7.48.55,3.18,1.22,6.33,2,9.45a170.4,170.4,0,0,0,5.39,17.62,168.68,168.68,0,0,0,9.07,20.21c1.67,3.19,3.6,6.26,5.47,9.35,1.27,2.11,2.55,4.22,4,6.22,2.32,3.24,4.53,6.57,7.14,9.61,1.75,2,3.35,4.2,5,6.3.14.18.32.33.47.51,3.74,4.31,7.82,8.29,11.85,12.32,2.62,2.61,5.4,5,8.26,7.36q2.94,2.4,5.82,4.88a9.23,9.23,0,0,0,1.95,1.22c-.18,1.6-.31,3.21-.57,4.79a29.41,29.41,0,0,0-.4,4.58,1.67,1.67,0,0,1-.45,1.27c-.38,0-.05-1.51-1.11-.34-4.25,4.73-9.49,8.31-14.64,12-.43.31-.86.7-1.46.41a14,14,0,0,1-2.72-3.13,221.56,221.56,0,0,1-20.32-30,193.59,193.59,0,0,1-9.62-19.22c-.24-.56-.51-1.12-.79-1.67a8.35,8.35,0,0,0-6.72-4.72,12.89,12.89,0,0,0-11.18,3.81,8.26,8.26,0,0,0-2,8.76,47.71,47.71,0,0,0,2.32,5.54A221,221,0,0,0,206,347.88C208,350.48,210.06,353.06,212.12,355.65Z"/><path class="cls-6" d="M488.11,324.63c.43-1.63,1.67-2.75,2.62-4,2.94-4,5.61-8.09,8.18-12.3a148.51,148.51,0,0,0,7.84-14.94,151.12,151.12,0,0,0,6.92-18.11,134.15,134.15,0,0,0,4.14-16.77c.46-2.56,1.05-5.12,1.28-7.71.19-2.22.78-4.4.58-6.65.92-6.76.31-13.55.43-20.33a7.3,7.3,0,0,0-.3-2.74,3.36,3.36,0,0,1-.12-1.15,67.43,67.43,0,0,0-.86-8,129.76,129.76,0,0,0-3.3-16.7,156.51,156.51,0,0,0-6-18.18,141.55,141.55,0,0,0-7.21-15.25A148.45,148.45,0,0,0,489.6,142c-2-2.57-3.88-5.17-5.93-7.66-1.67-2-3.49-3.9-5.26-5.83a66.13,66.13,0,0,0-4.54-4.91c-3.05-2.71-5.87-5.67-9-8.28-2-1.67-4-3.39-6-5a175.29,175.29,0,0,0-14.54-10.6c-3.74-2.45-7.59-4.71-11.47-6.94-4.68-2.69-9.53-5.07-14.42-7.34a144.68,144.68,0,0,0-14.53-6c-2.4-.81-4.77-1.74-7.19-2.52-6.14-2-12.36-3.74-18.67-5.11-4.2-.9-8.43-1.69-12.66-2.41-2.65-.45-5.31-.85-8-1.17-2-.24-4-.42-5.94-.68-3-.4-6-.08-8.95-.76a8.13,8.13,0,0,0-1.85-.07q-10.19,0-20.37,0a7.67,7.67,0,0,0-3,.33,1.6,1.6,0,0,1-.69.08c-2.79-.22-5.52.39-8.28.54-2.06.11-4.11.47-6.16.75-2.59.35-5.18.69-7.75,1.08-1.82.29-3.64.61-5.44,1-4,.87-8,1.68-11.9,2.7-6.4,1.66-12.73,3.56-19,5.83-5.08,1.84-10.09,3.82-15,6-5,2.3-10,4.82-14.86,7.52-5.73,3.19-11.24,6.69-16.63,10.41-3.24,2.23-6.4,4.55-9.4,7.08-2.29,1.93-4.65,3.79-7,5.68-.12.1-.23.21-.34.32-2.69,2.53-5.49,5-8,7.63-2.82,3-5.63,5.9-8.26,9s-5,6-7.39,9.15c-2.77,3.7-5.39,7.5-7.81,11.44-1.81,3-3.6,5.92-5.18,9-2.74,5.35-5.35,10.76-7.55,16.36a159.7,159.7,0,0,0-6.27,20c-.88,3.58-1.57,7.21-2.14,10.84-.52,3.24-.81,6.54-1.14,9.83-.7,6.78-.23,13.55-.37,20.33a7.72,7.72,0,0,0,.28,2.74,4,4,0,0,1,.14,1.14c.19,6.32,1.41,12.5,2.61,18.68A134.38,134.38,0,0,0,148,277.84c1.34,4.17,2.94,8.27,4.67,12.3s3.76,7.95,5.74,11.87c1.5,2.95,3.26,5.76,5,8.6,2.45,4.11,5.31,7.93,8.06,11.82,1.42,2,3.06,3.86,4.61,5.77,1.26,1.55,2.55,3.08,3.82,4.62.15.17.29.36.45.52,2.65,2.8,5.12,5.79,8,8.35,2.7,2.4,5.23,5,8,7.35,3.57,3.06,7.28,5.92,11,8.83.81.64.88,1,.21,1.67a14.85,14.85,0,0,1-2.87,2.67,34.13,34.13,0,0,1-4.84-4.62c-3.63-3.79-7.37-7.47-11.13-11.13a168.23,168.23,0,0,1-16.7-18.88,161.69,161.69,0,0,1-24.55-45.65,148.83,148.83,0,0,1-6.18-24.64,164.27,164.27,0,0,1-2-23c-.06-3.4.06-6.78.2-10.15a132.29,132.29,0,0,1,2.46-20,154.4,154.4,0,0,1,11.56-35.54,164.53,164.53,0,0,1,19.82-32.26,184.3,184.3,0,0,1,41.53-38.62,204.77,204.77,0,0,1,52-25.47A214.11,214.11,0,0,1,297,64.75q11.3-1.95,22.72-2.79c3.62-.26,7.24-.31,10.86-.49q3.46-.16,6.92-.12c4,0,8,.22,12,.43,2.77.15,5.53.47,8.3.68,5.23.42,10.43,1.16,15.59,2a220.32,220.32,0,0,1,28.1,6.69,207.42,207.42,0,0,1,50.85,23.54,188.4,188.4,0,0,1,27.88,21.74,172.15,172.15,0,0,1,34,44.18,155.29,155.29,0,0,1,15.43,42.93q1.39,7,2.08,14.18a140.2,140.2,0,0,1,.71,19.86,163.73,163.73,0,0,1-1.58,17.26,152,152,0,0,1-8,31.06A160.25,160.25,0,0,1,498,329.84c-1.58,2-3.24,3.93-4.87,5.88-.29.34-.51.79-1,.87-.12-.09-.29-.16-.33-.28C490.54,332.42,489.33,328.53,488.11,324.63Z"/><path class="cls-7" d="M39.8,356.13a1.5,1.5,0,0,1-.43-1.26c0-1.08,0-2.16,0-3.24a5.08,5.08,0,0,0-.25-2.05,2.5,2.5,0,0,1-.09-1.82,10,10,0,0,0,.34-3.43,35.57,35.57,0,0,1,.34-4.59c.27-1.64.34-3.35.58-5s.35-3.35.58-5,.53-3.48.83-5.22c.16-.9.38-1.79.61-2.88a18.55,18.55,0,0,1,1.54,5.23c.48,2.26,1,4.49,1.57,6.73,1.2,5.15,2.4,10.31,3.68,15.45.69,2.75,1.52,5.47,2.3,8.21.43,1.47.86,2.95,1.34,4.41a126.72,126.72,0,0,0,4.73,12.27c1.26,2.81,2.54,5.62,4,8.31,2.45,4.45,5.11,8.77,7.91,13s6,8.58,9.18,12.71c1.68,2.18,3.45,4.32,5.25,6.42a44.92,44.92,0,0,1,4.49,5.25,1.47,1.47,0,0,0,.31.35c2.76,2.48,4.94,5.49,7.59,8.08s5.12,5.37,7.9,7.8c2.22,1.93,4.14,4.17,6.44,6,2,1.57,3.6,3.56,5.72,5a44.62,44.62,0,0,1,3.49,3c3.83,3.21,7.74,6.31,11.66,9.4q8.81,6.92,18.2,13c2.19,1.43,4.52,2.64,6.72,4a55.26,55.26,0,0,0,7,3.51,10,10,0,0,0,5.16,1A1.38,1.38,0,0,0,170,479a7.18,7.18,0,0,0-1-2.81c-1.27-2.39-3-4.46-4.49-6.7s-2.93-4.14-4.41-6.2c-2.91-4.06-5.84-8.11-8.75-12.17-1.12-1.56-2.16-3.17-3.29-4.73-3.45-4.71-6.78-9.51-10.17-14.27-3.07-4.32-6.17-8.62-9.23-12.95-1.51-2.13-3-4.3-4.44-6.46.47-.48.7,0,.88.22,6,6.95,12.88,13.06,19.26,19.66,2.47,1.86,4.45,4.26,6.79,6.25,1.47,1.25,2.76,2.71,4.29,3.84,1.87,1.39,3.35,3.17,5.25,4.51,1.5,1.06,2.79,2.41,4.19,3.61,1.05.9,2.08,1.82,3.18,2.67,6,4.64,12,9.39,18.1,13.87,5.15,3.77,10.44,7.35,15.91,10.65,3.1,1.86,6.14,3.82,9.22,5.7,1.32.8,2.68,1.52,4,2.28,4.16,2.36,8.44,4.47,12.72,6.6,3.66,1.82,7.45,3.33,11.18,5a178.4,178.4,0,0,0,18,6.55,95.65,95.65,0,0,0,11.58,3c2.41.44,4.79,1.07,7.2,1.54,1.58.31,3.21.38,4.76.77,1.8.45,3.68.22,5.46.78a5.73,5.73,0,0,0,1.61.1,14,14,0,0,1,4.12.38,5.92,5.92,0,0,0,1.84.09h12.74a10.4,10.4,0,0,0,3.88-.38,2.8,2.8,0,0,1,.92-.07,59.78,59.78,0,0,0,10.49-1.28c1.13-.21,2.28-.29,3.4-.58a4.74,4.74,0,0,0,3.86-4.31,9,9,0,0,0-.56-3.37,29.33,29.33,0,0,0-2.95-6c-1.43-2.26-3-4.45-4.66-7,1.84.75,3,1.93,4.48,2.7s2.81,1.6,4.25,2.34,3.05,1.48,4.6,2.17,3.09,1.38,4.67,2,3,1.09,4.58,1.59,3.22,1,4.84,1.54a2.85,2.85,0,0,0,.19,1.35c1,2.49,2.06,5,3,7.49a88.7,88.7,0,0,0,4.4,9.17,41.51,41.51,0,0,0,3.84,5.76c.19.24.41.47.32.81s-.45.34-.74.41a37.42,37.42,0,0,1-8.05.45q-11.24,0-22.47,0a13.88,13.88,0,0,1-3.2-.3,17.28,17.28,0,0,0-3.23-.15,13,13,0,0,1-4.35-.39.91.91,0,0,0-.23,0c-2.48.17-4.9-.37-7.36-.53-2.14-.15-4.27-.46-6.39-.75-1.52-.21-3-.32-4.57-.55-2.73-.42-5.45-.9-8.17-1.33s-5.45-.88-8.16-1.47c-3.07-.67-6.16-1.29-9.24-1.93-5-1-9.87-2.37-14.71-3.84s-9.76-2.83-14.48-4.76c-3-1.22-6.08-2.2-9.08-3.39s-5.66-2.42-8.51-3.6c-4.85-2-9.48-4.48-14.14-6.88-4.86-2.5-9.62-5.19-14.24-8.13-2.73-1.73-5.45-3.48-8.11-5.31-4.31-3-8.57-6-12.57-9.38-2.29-1.93-4.64-3.79-7-5.69a1.47,1.47,0,0,1-.25-.38c-.52-.23-.69-.07-.5.46a14.81,14.81,0,0,0,2.42,4.43c3.4,5.32,7,10.47,10.79,15.54,2.1,2.85,4.06,5.8,6.08,8.7.13.19.28.37.4.57s.17.44-.05.6a.55.55,0,0,1-.43.06c-1-.39-2-.8-3-1.22l-8.92-3.79c-1.55-.67-3.1-1.37-4.64-2.07-7.65-3.48-15.21-7.17-22.62-11.13q-9.25-5-18.16-10.55c-6.25-4-12.38-8.07-18.25-12.54-2.93-2.23-5.75-4.63-8.6-7A210.44,210.44,0,0,1,87.59,431.8c-2.44-2.54-4.66-5.31-6.89-8.06a161.15,161.15,0,0,1-10.71-15,113,113,0,0,1-6.57-11.4c-1.2-2.5-2.48-5-3.71-7.46a120.05,120.05,0,0,1-4.9-11.71c-1.06-2.88-2.08-5.79-3-8.72a141.83,141.83,0,0,1-4.18-15.57c-.63-3.24-1.47-6.44-2.09-9.68-.46-2.4-.71-4.85-1.07-7.28-.26-1.74-.55-3.48-.79-5.22a18,18,0,0,1-.13-2.08,3.12,3.12,0,0,0-.57-2.21c-.61.1-.51.72-.57,1-.44,2.33-.77,4.69-1.17,7s-.31,4.89-.83,7.31a12.94,12.94,0,0,0-.09,2.07,24,24,0,0,1-.37,5.06,13.49,13.49,0,0,0-.09,3C39.83,354,39.81,355.05,39.8,356.13Z"/><path class="cls-7" d="M351.93,501.13a77.11,77.11,0,0,0,8.08,1.78,69.32,69.32,0,0,0,7.93,1.3c2.21.19,4.4.8,6.65.58a3.16,3.16,0,0,1,1.15,0,18.43,18.43,0,0,0,5.73.41c5.41,0,10.81,0,16.21,0a6.72,6.72,0,0,0,2.74-.3,1.4,1.4,0,0,1,.67-.12c2.41.22,4.75-.39,7.12-.53a52.94,52.94,0,0,0,5.46-.71c1.36-.23,2.74-.3,4.1-.6,2.84-.62,5.73-1,8.58-1.6,2.26-.45,4.51-.94,6.74-1.49q10.08-2.52,19.86-6c4.86-1.72,9.62-3.69,14.35-5.74,3.4-1.48,6.69-3.16,10-4.82a74.82,74.82,0,0,0,13.88-9,71.75,71.75,0,0,0,6.19-5.88,52.19,52.19,0,0,0,3.91-4.83A80.55,80.55,0,0,0,510,448.11c2.14-4.68,4-9.51,5.95-14.26q1.61-3.84,3.22-7.66c.84-2,1.67-4,2.53-5.94a17.7,17.7,0,0,1,1.65-3.05c0,1.49.05,2.45,0,3.4a10.73,10.73,0,0,1-.18,1.6,5.19,5.19,0,0,0-.23,1.12c.2,2.1-.46,4.12-.56,6.19-.08,1.75-.5,3.48-.75,5.22a12.61,12.61,0,0,0-.12,1.62,23.33,23.33,0,0,1-.29,2.5,20.08,20.08,0,0,0,.36,8,4.46,4.46,0,0,0,4.26,3.27,10.32,10.32,0,0,0,4.3-.62c1.94-.76,3.89-1.47,5.75-2.4a128.65,128.65,0,0,0,12.4-6.69c3.3-2.12,6.61-4.23,9.7-6.65,2.24-1.75,4.44-3.55,6.51-5.5,1.23-1.16,2.62-2.14,3.78-3.38,3-3.2,5.93-6.44,8.63-9.9,2.08-2.67,4.07-5.4,5.9-8.24,2.13-3.3,4.17-6.64,6-10.12,1.07-2,2.25-4,3.25-6.12,1.94-4.1,3.86-8.21,5.56-12.43,1.27-3.13,2.68-6.21,3.94-9.35,1.46-3.64,2.82-7.32,4.23-11s2.88-7.46,4.3-11.2c1-2.72,2-5.47,3.1-8.2q1.81-4.73,3.67-9.46c2-5.08,4.11-10.12,5.69-15.36.23-.78.16-1.7.82-2.34a26.72,26.72,0,0,1-.36,6,37.16,37.16,0,0,0-.45,4.11,125.19,125.19,0,0,1-3,15.12,152.17,152.17,0,0,1-5,16.32c-2,5.42-4,10.83-6.48,16-1.61,3.42-3,6.92-4.75,10.28q-3.87,7.62-8.12,15.05c-3.72,6.48-7.64,12.83-11.85,19-3.12,4.57-6.39,9-9.76,13.44-2.11,2.74-4.34,5.38-6.57,8-2.43,2.89-4.95,5.69-7.51,8.46-1.61,1.75-3.2,3.54-4.89,5.22-3,2.93-6.12,5.63-9.22,8.39A123,123,0,0,1,534,465.58a78.5,78.5,0,0,1-7.31,4.43c-2.29,1.27-4.67,2.38-7,3.52a20,20,0,0,1-2.36.94c-1,.34-1.44-.1-1.22-1.17.81-3.83,1.66-7.66,2.42-11.49a27.21,27.21,0,0,0,.77-5.47,5.77,5.77,0,0,1,.23-1.59,3.75,3.75,0,0,0,.11-1.82,1,1,0,0,0-.37-.55c-.22-.15-.4,0-.54.23-.29.45-.62.88-.9,1.34a103.11,103.11,0,0,1-6.8,9.89c-1.83,2.37-3.74,4.68-5.66,7-3.32,4-7.17,7.44-10.77,11.14-1.77,1.83-3.85,3.3-5.74,5-2.26,2-4.7,3.73-7.09,5.54-3.07,2.32-6.31,4.4-9.58,6.42A140.33,140.33,0,0,1,458.86,506c-3.13,1.49-6.34,2.79-9.6,4q-5.75,2.1-11.66,3.67c-2.52.67-5.06,1.31-7.63,1.73-4.54.76-9,1.71-13.53,2.72s-9.32,1.91-14,2.8c-1.5.29-3,.37-4.56.58-1.83.24-3.64.54-5.47.78a15.86,15.86,0,0,1-2.07.12c-3.24,0-6.48,0-9.73,0a25.65,25.65,0,0,1-15.91-5.31,34.17,34.17,0,0,1-4.79-4.68c-2.93-3.38-5.27-7.19-7.85-10.83A1.5,1.5,0,0,1,351.93,501.13Z"/><path class="cls-5" d="M327.43,159.24c1.39-.74,2.87-.46,4.27-.24.91.15,1.82.25,2.73.32a32.15,32.15,0,0,1,5,.58c1.5.38,3.09.12,4.53.77a186.32,186.32,0,0,1,22.93,4.79c4.31,1.14,8.55,2.52,12.76,4a150.28,150.28,0,0,1,15.44,6.07c2.64,1.26,5.35,2.34,8,3.6,1.67.78,3.24,1.78,4.88,2.61a187.33,187.33,0,0,1,22.49,13.58c3,2.1,6,4.21,8.87,6.6,1.87,1.58,3.9,3,5.79,4.53,1.66,1.37,3.22,2.86,4.83,4.29a6.31,6.31,0,0,0,1.57,1.34,13.26,13.26,0,0,1-.8,1.12,46.15,46.15,0,0,1-17.11,12.28,22.72,22.72,0,0,1-8.73,1.95,9.59,9.59,0,0,1-5.26-1.45,61.64,61.64,0,0,0-15-6.56,72.29,72.29,0,0,0-10.82-2.3c-1.76-.23-3.51-.37-5.28-.46a2,2,0,0,1-1.51-.41,2.64,2.64,0,0,1-.15-2.23c2.39-12.39-2.19-22.61-10.17-31.59-8.36-9.41-19.22-14.79-31-18.5a95.08,95.08,0,0,0-16-3.69A3.08,3.08,0,0,1,327.43,159.24Z"/><path class="cls-3" d="M327.43,159.24a106,106,0,0,1,25.2,6.46,71.19,71.19,0,0,1,19,10.86,45.83,45.83,0,0,1,15.17,21.9,29.7,29.7,0,0,1,.55,16.4c-.11.45-.17.91-.26,1.37-1.85,0-3.69.08-5.54.09A98.54,98.54,0,0,0,365,217.89a126.8,126.8,0,0,0-15.26,3.64c-.36.11-.71.32-1.19,0a13.6,13.6,0,0,1-.1-2.87A101.21,101.21,0,0,0,344.15,190a73.76,73.76,0,0,0-15.79-28.43c-.65-.73-1.57-1.25-1.89-2.27Z"/><path class="cls-5" d="M389,408.31a16,16,0,0,0-3.36-.81,56.21,56.21,0,0,0-20.87,1.2c-5.79,1.32-11.42,3.17-17,5-4.75,1.58-9.51,3.12-14.27,4.67a10.06,10.06,0,0,1-1.35.26c0-.13-.14-.35-.09-.4a9.84,9.84,0,0,1,1.41-1.17c2-1.21,3.47-3,5.24-4.48a29.72,29.72,0,0,0,5.28-5.46c.93-1.3,2.12-2.41,3.14-3.67A74,74,0,0,0,354.16,393c.79-1.41,1.62-2.79,2.34-4.23a86.93,86.93,0,0,0,6.59-18.14c.65-2.68,1.26-5.37,1.77-8.07.31-1.65.28-3.37.6-5a62.94,62.94,0,0,0,.53-6.41c.06-.71-.16-1.37-.05-2.05a2.45,2.45,0,0,1,.88,1.32c.28.88.61,1.74.91,2.62a8.93,8.93,0,0,0,1.42,2.63c2.89,3.7,5.29,7.74,8.2,11.43,2.25,2.86,3.55,6.3,4.77,9.72a114.87,114.87,0,0,1,4.13,15.36c.95,4.59,1.82,9.2,2.36,13.86C388.7,406.82,389.17,407.51,389,408.31Z"/><path class="cls-6" d="M314.56,237.2c.74-6.3.3-12.62.37-18.93a31.38,31.38,0,0,0-.58-5,68,68,0,0,0-1.72-9c-1.6-5.5-3.58-10.82-6.88-15.56a38.84,38.84,0,0,0-5.57-6.75,49.19,49.19,0,0,0-7.51-5.73,53.13,53.13,0,0,0-12.38-5.62A74.35,74.35,0,0,0,269.76,168c-2.2-.31-4.41-.6-6.6-.93s-4.16-.16-6.21-.44c-4.3-.59-8.62-.24-12.92-.4a11.31,11.31,0,0,1-6.42-2.31,13.73,13.73,0,0,1-5.66-8.15,13.43,13.43,0,0,1,1.76-10.39,13,13,0,0,1,4.38-4.36,3.37,3.37,0,0,1,1.93-.7c-.36.59-.73,1.18-1.07,1.78a13.73,13.73,0,0,0,9.32,20.32,11.88,11.88,0,0,0,2.53.17c4.86-.06,9.72,0,14.56.42,9.5.77,18.78,2.5,27.5,6.53a43.26,43.26,0,0,1,20.91,19.5,58.26,58.26,0,0,1,5.32,15.46c1.71,8.45,1.75,17,1.3,25.55-.06,1.07-.25,2.14-.3,3.22a1.6,1.6,0,0,1-1,1.44l-3.64,2a1.53,1.53,0,0,0-.56.34A.53.53,0,0,1,314.56,237.2Z"/><path class="cls-8" d="M482.61,436.25a60.5,60.5,0,0,0,4.59-9.31,68.64,68.64,0,0,0,4.08-14.86,23.22,23.22,0,0,0,.6-5.95c.81-4.28.33-8.6.43-12.91A7.73,7.73,0,0,0,492,390a2.71,2.71,0,0,1-.1-.91,114.51,114.51,0,0,0-2.65-18.42c-1.58-7.53-3.64-14.92-5.86-22.28s-4.79-14.3-7-21.5c-1.91-6.14-6.11-9.57-12.17-11.07a32.35,32.35,0,0,0-11-.84c-2.81.28-5.63.6-8.43,1.12-4.38.81-8.71,1.83-13,3-2.9.76-5.77,1.63-8.65,2.44s-5.77,1.64-8.66,2.43a3.36,3.36,0,0,1-1.36.17c-2.27-.32-4.55-.64-6.8-1.09-1.43-.29-2.93-.16-4.31-.72-.13-.06-.25-.15-.57-.33,1.58-.16,3-.37,4.37-.51,2.29-.25,4.55-.69,6.81-1.1,4.52-.84,9-1.79,13.52-2.78,3.9-.86,7.76-1.89,11.65-2.76,5.39-1.22,10.78-2.44,16.2-3.51a17.94,17.94,0,0,1,5-.6,2.38,2.38,0,0,0,.92-.08c2.64-.77,5.17-.21,7.67.67a5.18,5.18,0,0,0,1.33.33,13.23,13.23,0,0,1,7.94,3.88,11.07,11.07,0,0,1,3,4.61c1.84,5.47,3.82,10.9,5.57,16.4,2.6,8.2,5.16,16.42,7.06,24.83.86,3.81,1.64,7.64,2.29,11.5.45,2.64.66,5.32,1.22,7.95a10.23,10.23,0,0,1,.09,1.84,11.14,11.14,0,0,0,.3,3,7.4,7.4,0,0,1,.15,2.06c0,2.86,0,5.71,0,8.57a15.57,15.57,0,0,1-.39,5,2.57,2.57,0,0,0-.05.92,26,26,0,0,1-.63,5.49,77.09,77.09,0,0,1-2.69,11.18,39.83,39.83,0,0,1-2,5.16,60.33,60.33,0,0,1-7.67,13.12C482.29,437.18,482.27,436.8,482.61,436.25Z"/><path class="cls-6" d="M375.17,253.34a9.81,9.81,0,0,1,2.64-1.78,29.51,29.51,0,0,0,5.56-4.77,6.44,6.44,0,0,0,1.64-2.73,38.77,38.77,0,0,1,20,5.43,36.15,36.15,0,0,0,14,5.07,42.77,42.77,0,0,0,12.22-.1c11.17-1.7,21-6.54,29.87-13.31a66,66,0,0,0,15-15.58,39.18,39.18,0,0,0,6.14-13.86,37.24,37.24,0,0,0,.66-7.81c0-.71-.73-1.61.52-2a12.09,12.09,0,0,1,1.42,5.75A32.26,32.26,0,0,1,480,225.19a120.47,120.47,0,0,1-9.36,14,52.65,52.65,0,0,1-7.21,7.73,47.48,47.48,0,0,1-10.12,6.38,80.13,80.13,0,0,1-17.39,6A45.84,45.84,0,0,1,425,260.75a5.19,5.19,0,0,0-1.83.24,3.56,3.56,0,0,1-2.28.06,10.65,10.65,0,0,0-3-.31,31.89,31.89,0,0,1-15.54-4.56,32.08,32.08,0,0,0-10.8-3.83,36.78,36.78,0,0,0-5.73-.45,32,32,0,0,0-8.66,1.12A7.07,7.07,0,0,1,375.17,253.34Z"/><path class="cls-7" d="M584,338.05c0,1.76.2,3.53-.36,5.27a7,7,0,0,0-.09,1.84,7.21,7.21,0,0,1-.34,2.95.9.9,0,0,0-.08.45c.21,2.25-.48,4.42-.55,6.64-.06,2.06-.45,4.1-.7,6.15a3.54,3.54,0,0,0-.11.44c-.08,2.92-.68,5.78-1,8.67-.26,2.65-.75,5.25-1.25,7.87a29.34,29.34,0,0,1-.19-4.29,9.66,9.66,0,0,0-.3-3A7,7,0,0,1,579,369c0-3.93,0-7.85,0-11.78a11.63,11.63,0,0,0-1.07-4.67,3,3,0,0,0-2.61-2c2.31-3.32,4.59-6.66,6.93-10C582.8,339.77,583,338.6,584,338.05Z"/><path class="cls-9" d="M230.13,344.11c3.08-2.25,6.24-4.4,9.23-6.77a51.13,51.13,0,0,0,7.85-7.45c.06.91.09,1.54.13,2.18a9.69,9.69,0,0,1-1.75,3.71,44.24,44.24,0,0,1-3.09,4,80.83,80.83,0,0,1-8.31,7.93,4.31,4.31,0,0,1-.67.38A17.4,17.4,0,0,1,230.13,344.11Z"/><path class="cls-10" d="M629,273.7c.89,1.21,1,2.72,1.25,4.1.6,3.07,1.53,6.07,2.16,9.13.25,1.2.53,2.38.8,3.57.06.31.17.6.52.67s.7-.18.91-.53a10.74,10.74,0,0,0,1.32-5.05c0-.74-.22-1.55.42-2.18,0,2.07.25,4.14-.34,6.19a7.76,7.76,0,0,0-.08,1.61,36.72,36.72,0,0,1-1.58,9,1.69,1.69,0,0,1-.7-1.22c-.75-3.75-1.59-7.49-2.21-11.26-.69-4.16-1.56-8.27-2.41-12.39A9.6,9.6,0,0,1,629,273.7Z"/><path class="cls-11" d="M482.61,436.25a.93.93,0,0,0,.46.92,10.62,10.62,0,0,1-3.24,3.71l0,0c0-.15,0-.33.08-.44C480.79,439,481.7,437.64,482.61,436.25Z"/><path class="cls-12" d="M483.52,201.92c-.7.52-.32,1.33-.52,2a18.62,18.62,0,0,1-.94-3.81C483,200.32,483.14,201.22,483.52,201.92Z"/><path class="cls-13" d="M53.75,171.82c0-.34-.07-.69-.45-.87.29-.75.51-1.55,1.35-1.92h0A4.25,4.25,0,0,1,53.75,171.82Z"/><path class="cls-14" d="M39.38,360.28c.56-.34.4-.92.49-1.41.72.88.36,1.88.42,3A1.65,1.65,0,0,1,39.38,360.28Z"/><path class="cls-15" d="M627.1,267.21c-.1-.11-.26-.21-.3-.34-.23-.8,0-1.43.37-1.26.56.23.35.76.37,1.19Z"/><path class="cls-16" d="M170.4,467.28a1.3,1.3,0,0,1-.57-.9c0-.11.07-.25.14-.36s.15,0,.21,0a1.31,1.31,0,0,1,.72.79Z"/><path class="cls-11" d="M479.36,441.34a1.38,1.38,0,0,1-.93,1.38h0a1.4,1.4,0,0,1,.92-1.4Z"/><path class="cls-12" d="M481.51,199.16c.5.12.61.49.6.94C481.64,200,481.62,199.53,481.51,199.16Z"/><path class="cls-13" d="M54.65,169c0-.14,0-.28.05-.42s.09-.17.12-.17.25.16.15.32a1.69,1.69,0,0,1-.32.27Z"/><path class="cls-7" d="M348.72,500.2a.93.93,0,0,1,1,.38A1,1,0,0,1,348.72,500.2Z"/><path class="cls-2" d="M314.93,237.06a.57.57,0,0,1,.56-.34A.53.53,0,0,1,314.93,237.06Z"/><path class="cls-11" d="M479.36,441.33l.45-.47,0,0c-.15.16-.31.31-.47.46Z"/><path class="cls-11" d="M478.43,442.72c0,.06-.08.19-.1.18s-.11-.1.11-.17Z"/><path class="cls-1" d="M295.08,364.47c2.54,0,5.09,0,7.64,0,1,0,1.19.2,1.38,1.16.25,1.21.35,2.45.71,3.62,1.36,4.46,4.09,7.76,8.56,9.35a19.47,19.47,0,0,0,9.12.94,40.92,40.92,0,0,0,5.91-1.07c1.58-.44,1.76-.29,2.25,1.39.8,2.73,1.57,5.48,2.35,8.22.59,2.07,1.18,4.14,1.75,6.22.23.84.09,1.13-.78,1.35-2.24.55-4.48,1.12-6.75,1.52a49.41,49.41,0,0,1-10.58.93,35.69,35.69,0,0,1-12.41-2.37,26.33,26.33,0,0,1-11.77-9.36,36.15,36.15,0,0,1-5.72-13.54c-.39-1.8-.6-3.65-.86-5.47a11.45,11.45,0,0,1-.06-1.85c0-.76.23-1,.93-1,.54,0,1.08,0,1.62,0Z"/><path class="cls-6" d="M374.23,253.79a.92.92,0,0,1,.94-.45A.89.89,0,0,1,374.23,253.79Z"/><path class="cls-5" d="M194.53,122.73c0-.07.08-.19.1-.19s.11.11-.11.18Z"/></svg>