<svg xmlns="http://www.w3.org/2000/svg" xmlns:xlink="http://www.w3.org/1999/xlink" width="25" height="24" viewBox="0 0 25 24"><defs><clipPath id="a"><rect width="25" height="24" rx="3" transform="translate(320 4180)" fill="#fff"/></clipPath></defs><g transform="translate(-320 -4180)" clip-path="url(#a)"><path d="M0,2.25V27.176H25.441V2.25Zm21.136,5.9-1.363,1.28a.388.388,0,0,0-.153.373v9.42a.379.379,0,0,0,.153.373l1.335,1.28v.284h-6.7v-.273l1.38-1.313c.136-.134.136-.172.136-.373V11.586l-3.839,9.548h-.517L7.1,11.586v6.4a.869.869,0,0,0,.25.734L9.143,20.85v.284h-5.1V20.85l1.794-2.131a.841.841,0,0,0,.233-.734v-7.4a.629.629,0,0,0-.216-.545l-1.6-1.886V7.87H9.217L13.044,16.1l3.368-8.229h4.725Z" transform="translate(319.65 4177.195)" fill="#ffe5d9"/></g></svg>