<svg xmlns="http://www.w3.org/2000/svg" xmlns:xlink="http://www.w3.org/1999/xlink" width="1002" height="315" viewBox="0 0 1002 315"><defs><filter id="a" x="184" y="148" width="818" height="167" filterUnits="userSpaceOnUse"><feOffset dy="3" input="SourceAlpha"/><feGaussianBlur stdDeviation="3" result="b"/><feFlood flood-opacity="0.161"/><feComposite operator="in" in2="b"/><feComposite in="SourceGraphic"/></filter><filter id="c" x="0" y="0" width="818" height="167" filterUnits="userSpaceOnUse"><feOffset dy="3" input="SourceAlpha"/><feGaussianBlur stdDeviation="3" result="d"/><feFlood flood-opacity="0.161"/><feComposite operator="in" in2="d"/><feComposite in="SourceGraphic"/></filter></defs><g transform="translate(-459 -241)"><g transform="matrix(1, 0, 0, 1, 459, 241)" filter="url(#a)"><path d="M30,0H770a30,30,0,0,1,30,30v89a30,30,0,0,1-30,30H119A119,119,0,0,1,0,30v0A30,30,0,0,1,30,0Z" transform="translate(193 154)" fill="#5c8084"/></g><g transform="matrix(1, 0, 0, 1, 459, 241)" filter="url(#c)"><path d="M30,0H770a30,30,0,0,1,30,30v89a30,30,0,0,1-30,30H119A119,119,0,0,1,0,30v0A30,30,0,0,1,30,0Z" transform="translate(809 155) rotate(180)" fill="#e07a5f"/></g></g></svg>