<svg xmlns="http://www.w3.org/2000/svg" width="32.751" height="36" viewBox="0 0 32.751 36"><path d="M62.2.048a6.116,6.116,0,0,0-4.6,3.225A3.7,3.7,0,0,0,57.135,4.7l-.033.31-2.8.028c-3.058.03-2.94.019-3.609.358a2.283,2.283,0,0,0-1.169,1.648c-.074.475-.074,26.042,0,26.517a2.331,2.331,0,0,0,1.715,1.886c.283.1,15.133.183,15.133.082,0-.023-1.44-1.48-3.2-3.237-3.837-3.831-3.7-3.665-3.655-4.586.053-.964.361-1.434,2.033-3.105,1.767-1.765,2.345-1.98,3.792-1.4.854.34,1.263.677,2.577,2.124a21.022,21.022,0,0,0,1.969,2.06.224.224,0,0,0,.139-.1c.038-.055.367-.417.729-.8s.79-.847.95-1.02.447-.483.638-.688.464-.5.607-.663.31-.338.371-.4.261-.272.445-.476.515-.561.735-.795c.393-.417,1.215-1.3,1.831-1.975.172-.187.5-.532.72-.766l.408-.426V13.353c0-3.627-.02-6.059-.052-6.286A2.258,2.258,0,0,0,76.24,5.393c-.673-.341-.548-.329-3.6-.348l-2.786-.018-.023-.116c-.013-.063-.038-.222-.055-.353a5.637,5.637,0,0,0-1.618-2.872A6.259,6.259,0,0,0,65.315.17,16.625,16.625,0,0,0,62.2.048m2.044,2.8c1.655.38,2.809,2.06,2.956,4.3l.034.522,2.884.018c2.755.018,2.9.023,3.148.126A2.435,2.435,0,0,1,74.8,9.906l.031.2H52.112l.031-.251a2.591,2.591,0,0,1,1.049-1.8c.568-.359.445-.347,3.628-.367l2.888-.018.035-.406c.239-2.807,1.6-4.474,3.681-4.5a4.253,4.253,0,0,1,.819.078M63.206,5.069c-.572.118-1.055,1.251-1.059,2.486v.119h1.321c1.294,0,1.321,0,1.321-.108,0-1.632-.668-2.686-1.582-2.5M56.39,12.864a1.211,1.211,0,0,1-.143,2.232,5.305,5.305,0,0,1-2.233-.073,1.2,1.2,0,0,1,.287-2.231,8.437,8.437,0,0,1,2.089.072m16.52.028a1.2,1.2,0,0,1,.007,2.131l-.234.125-5.942.015c-6.581.016-6.275.031-6.647-.323a.976.976,0,0,1-.347-.88A1.056,1.056,0,0,1,60.64,12.8c.087-.023,2.833-.038,6.1-.033l5.942.008.227.121M56.274,17.9a1.2,1.2,0,0,1-.026,2.264,5.305,5.305,0,0,1-2.233-.073,1.2,1.2,0,0,1,.26-2.229,7.7,7.7,0,0,1,2,.037m16.644.065a1.2,1.2,0,0,1,0,2.127l-.234.125-5.942.015c-6.581.016-6.275.031-6.647-.323a1.245,1.245,0,0,1-.011-1.759c.37-.351.027-.334,6.631-.321l5.969.011.234.125m6.633,2.36c-.029.008-.116.029-.193.046-.173.038-.411.259-1.082,1.008-.286.319-.568.631-.626.692s-.211.228-.34.37-.355.39-.5.55c-.669.729-1.329,1.451-1.879,2.059-.329.363-.814.9-1.078,1.183s-.5.55-.533.583-.183.2-.343.376-.528.576-.819.9-.66.723-.822.9-.4.437-.528.582c-.651.735-.843.858-1.216.784-.192-.038-.243-.088-2.187-2.1-3.137-3.253-2.958-3.09-3.381-3.09-.353,0-.45.069-1.272.906-1.254,1.277-1.341,1.029,1.425,4.083.236.26.524.581.64.712.244.276.2.227.717.8.661.734,1.467,1.633,1.866,2.08s.884.985.93,1.031c.015.015.2.228.422.475.879,1,1.177,1.014,1.988.115.228-.252.474-.519.547-.593s.3-.311.5-.528.535-.573.74-.791.526-.563.713-.766.52-.56.739-.793c.869-.922,1.7-1.817,1.806-1.935.059-.068.242-.267.407-.441s.621-.662,1.013-1.083.749-.8.792-.846.222-.234.4-.423.628-.676,1.008-1.082.844-.9,1.03-1.105.544-.582.8-.845c.884-.926,1-1.089,1-1.455s-.531-1.009-1.453-1.725c-.742-.577-.968-.693-1.215-.624" transform="translate(-49.468 -0.017)" fill="#ffe5d9" fill-rule="evenodd"/></svg>