<svg xmlns="http://www.w3.org/2000/svg" width="39.228" height="36" viewBox="0 0 39.228 36"><g transform="translate(-11.731 -43.661)"><path d="M13.991,79.592a3.156,3.156,0,0,1-2.181-2.334c-.07-.3-.078-1.84-.078-15.6,0-16.846-.025-15.506.307-16.263A3.588,3.588,0,0,1,13.3,44c.689-.368-.876-.339,18.035-.339,15.478,0,17.161.008,17.433.086a3.112,3.112,0,0,1,1.862,1.647c.357.786.332-.493.318,16.45-.012,14.2-.019,15.278-.1,15.519a3.3,3.3,0,0,1-1.989,2.193c-.219.086-1.373.093-17.4.1-14.543.008-17.21,0-17.481-.066Zm34.417-1.9a1.064,1.064,0,0,0,.472-.32c.4-.44.367.721.367-13.253V51.677H13.45V64.167c0,9.322.014,12.544.057,12.7a1.306,1.306,0,0,0,.851.862c.081.022,7.717.042,16.968.045,15.135.005,16.847,0,17.08-.079Zm-20.03-4.96c0-.034.311-1.283.691-2.776s1.375-5.406,2.212-8.7,1.543-6.064,1.571-6.16l.051-.176h.761c.7,0,.759.007.734.095-.014.052-1.021,4.019-2.237,8.814s-2.233,8.774-2.259,8.841c-.047.119-.068.122-.786.122C28.593,72.8,28.378,72.78,28.378,72.736Zm-6.519-5.4-5.12-2.418.013-1,.013-1,3.167-1.471,4.542-2.111c.756-.352,1.657-.77,2-.929l.627-.288-.013,1.058-.013,1.058-4.071,1.837c-2.239,1.01-4.079,1.846-4.089,1.857s1.26.606,5.863,2.694L27.1,67.68v1.043c0,.8-.013,1.041-.06,1.037s-2.365-1.094-5.181-2.424Zm13.8,1.39.013-1.039,1.669-.763,4.091-1.868a24.819,24.819,0,0,0,2.357-1.143c-.035-.021-1.826-.834-3.979-1.805s-3.971-1.795-4.039-1.829l-.123-.062v-2.1l.16.074c.636.294,9.3,4.319,9.686,4.5l.491.23.013,1,.013,1-5.145,2.423c-2.83,1.333-5.162,2.423-5.182,2.423A7.2,7.2,0,0,1,35.656,68.726Zm13.581-20.61c-.015-1.543-.02-1.621-.124-1.836a1.382,1.382,0,0,0-.716-.665c-.154-.046-4.508-.058-17.175-.047l-16.969.015-.24.164a1.344,1.344,0,0,0-.389.429l-.149.265-.014,1.643-.014,1.643H49.253Zm-33.946.7a1.131,1.131,0,0,1,.123-2.066.952.952,0,0,1,1.136.48,1.238,1.238,0,0,1-.161,1.4A.965.965,0,0,1,15.291,48.813Zm2.279-.05a.81.81,0,0,1-.4-.439,1.12,1.12,0,0,1,.223-1.343.893.893,0,0,1,1.295,0,1.142,1.142,0,0,1-.249,1.83A.844.844,0,0,1,17.57,48.764Zm2.288.05a1.179,1.179,0,0,1-.492-1.521,1.09,1.09,0,0,1,.934-.6,1.159,1.159,0,0,1,.913.745,1.645,1.645,0,0,1,.034.48.986.986,0,0,1-1.389.893Z" transform="translate(0 0)" fill="#ffe5d9"/></g></svg>