<svg xmlns="http://www.w3.org/2000/svg" width="25" height="24" viewBox="0 0 25 24"><path d="M-2778-45h-19a3,3,0,0,1-3-3V-66a3,3,0,0,1,3-3h19a3,3,0,0,1,3,3v18A3,3,0,0,1-2778-45Zm-9.5-5.989h.406c1.778,0,3.522-.04,5.185-.12a2.445,2.445,0,0,0,2.317-2.551c.074-1.088.11-2.215.107-3.35.005-1.111-.03-2.237-.1-3.346a2.44,2.44,0,0,0-2.317-2.542c-1.621-.076-3.358-.112-5.31-.112h-.563c-1.952,0-3.688.037-5.309.112a2.443,2.443,0,0,0-2.314,2.549c-.076,1.08-.113,2.205-.109,3.343s.032,2.252.106,3.346a2.444,2.444,0,0,0,2.313,2.551c1.7.079,3.5.119,5.344.119Zm-1.531-2.946v-6.152l4.54,3.074-4.538,3.076Z" transform="translate(2800 69)" fill="#ffe5d9"/></svg>